# AST/ASF file generated using VICON BodyLanguage
# -----------------------------------------------
:version 1.10
:name VICON
:units
  mass 1.0
  length 0.45
  angle deg
:documentation
   .ast/.asf automatically generated from VICON data using
   VICON BodyBuilder and BodyLanguage model FoxedUp or BRILLIANT.MOD
:root
   order TX TY TZ RX RY RZ
   axis XYZ
   position 0 0 0  
   orientation 0 0 0 
:bonedata
  begin
     id 1 
     name lhipjoint
     direction 0.621563 -0.714088 0.322083 
     length 2.21591 
     axis 0 0 0  XYZ
  end
  begin
     id 2 
     name lfemur
     direction 0.34202 -0.939693 0  
     length 6.84027  
     axis 0 0 20  XYZ
    dof rx ry rz
    limits (-160.0 20.0)
           (-70.0 70.0)
           (-60.0 70.0)
  end
  begin
     id 3 
     name ltibia
     direction 0.34202 -0.939693 0   
     length 6.74005   
     axis 0 0 20   XYZ
    dof rx
    limits (-10.0 170.0)
  end
  begin
     id 4 
     name lfoot
     direction 0.0348332 -0.0960526 0.994767   
     length 1.54672   
     axis -90 7.62852e-016 20   XYZ
    dof rx rz
    limits (-45.0 90.0)
           (-70.0 20.0)
  end
  begin
     id 5 
     name ltoes
     direction 1.53538e-011 -4.22089e-011 1   
     length 0.792077   
     axis -90 7.62852e-016 20   XYZ
    dof rx
    limits (-90.0 20.0)
  end
  begin
     id 6 
     name rhipjoint
     direction -0.648389 -0.693984 0.313015   
     length 2.2801  
     axis 0 0 0  XYZ 
  end
  begin
     id 7 
     name rfemur
     direction -0.34202 -0.939693 0   
     length 6.62341   
     axis 0 0 -20   XYZ
    dof rx ry rz
    limits (-160.0 20.0)
           (-70.0 70.0)
           (-70.0 60.0)
  end
  begin
     id 8 
     name rtibia
     direction -0.34202 -0.939693 0   
     length 6.63811   
     axis 0 0 -20   XYZ
    dof rx
    limits (-10.0 170.0)
 end
 begin
     id 9 
     name rfoot
     direction -0.0578404 -0.158915 0.985596   
     length 1.64992  
     axis -90 -7.62852e-016 -20   XYZ
    dof rx rz
    limits (-45.0 90.0)
           (-20.0 70.0)
  end
  begin
     id 10 
     name rtoes
     direction -1.53571e-011 -4.21911e-011 1   
     length 0.839909   
     axis -90 -7.62852e-016 -20   XYZ
    dof rx
    limits (-90.0 20.0)
  end
  begin
     id 11 
     name lowerback
     direction 0.000554472 0.999997 -0.00226605   
     length 1.81878   
     axis 0 0 0   XYZ
    dof rx ry rz
    limits (-20.0 45.0)
           (-30.0 30.0)
           (-30.0 30.0)
  end
  begin
     id 12 
     name upperback
     direction 0.00177008 0.999761 -0.021771   
     length 1.81977   
     axis 0 0 0   XYZ
    dof rx ry rz
    limits (-20.0 45.0)
           (-30.0 30.0)
           (-30.0 30.0)
  end
  begin
     id 13 
     name thorax
     direction 0.00134147 0.999799 -0.0200243   
     length 1.81422   
     axis 0 0 0   XYZ
    dof rx ry rz
    limits (-20.0 45.0)
           (-30.0 30.0)
           (-30.0 30.0)
  end
  begin
     id 14 
     name lowerneck
     direction -0.0819714 0.987506 0.134583   
     length 1.68295   
     axis 0 0 0   XYZ
    dof rx ry rz
    limits (-20.0 45.0)
           (-30.0 30.0)
           (-30.0 30.0)
  end
  begin
     id 15 
     name upperneck
     direction 0.0867129 0.969666 -0.228538   
     length 1.71188   
     axis 0 0 0   XYZ
    dof rx ry rz
    limits (-20.0 45.0)
           (-30.0 30.0)
           (-30.0 30.0)
  end
  begin
     id 16
     name head
     direction 0.023699 0.995021 -0.0968101  
     length 1.73365  
     axis 0 0 0   XYZ
    dof rx ry rz
    limits (-20.0 45.0)
           (-30.0 30.0)
           (-30.0 30.0)
  end
  begin
     id 17 
     name lclavicle
     direction 0.912847 0.398248 0.090054  
     length 3.56518  
     axis 0 0 0   XYZ
    dof ry rz
    limits (-20.0 10.0)
           (0.0 20.0)
  end
  begin
     id 18 
     name lhumerus
     direction 1 -4.48961e-011 -4.05442e-028   
     length 4.05444   
     axis 180 -30 -90   XYZ
    dof rx ry rz
    limits (-60.0 90.0)
           (-90.0 90.0)
           (-90.0 90.0)
  end
  begin
     id 19
     name lradius
     direction 1 -4.4897e-011 1.54979e-027   
     length 3.21205   
     axis 180 -30 -90   XYZ
    dof rx
    limits (-10.0 170.0)
  end
  begin
     id 20
     name lwrist
     direction 1 -4.48979e-011 1.55564e-027   
     length 1.60602   
     axis -1.61768e-015 90 90   XYZ
    dof ry
    limits (-180.0 0.0)
 end
  begin
     id 21 
     name lhand
     direction 1 -4.48877e-011 3.11128e-027   
     length 0.707407   
     axis -1.98526e-015 90 90   XYZ
    dof rx rz
    limits (-90.0 90.0)
           (-45.0 45.0)
  end
  begin
     id 22 
     name lfingers
     direction 1 -4.49016e-011 6.22255e-027   
     length 0.57033   
     axis -3.97052e-015 90 90   XYZ
    dof rx
    limits (0.0 90.0)
  end
  begin
     id 23
     name lthumb
     direction 0.707107 -6.35011e-011 0.707107   
     length 0.818883   
     axis -90 45 2.85299e-015   XYZ
    dof rx rz
    limits (-45.0 45.0)
           (-45.0 45.0)
  end
  begin
     id 24 
     name rclavicle
     direction -0.930415 0.353791 0.0957082   
     length 3.54688  
     axis 0 0 0   XYZ 
    dof ry rz
    limits (-10.0 20.0)
           (-20.0 0.0)
  end
  begin
     id 25 
     name rhumerus
     direction -1 -4.48952e-011 -8.4136e-018  
     length 3.74048   
     axis 180 30 90   XYZ
    dof rx ry rz
    limits (-90.0 60.0)
           (-90.0 90.0)
           (-90.0 90.0)
  end
  begin
     id 26 
     name rradius
     direction -1 -4.48964e-011 1.66692e-027   
     length 3.1603   
     axis 180 30 90   XYZ
    dof rx
    limits (-10.0 170.0)
  end
  begin
     id 27 
     name rwrist
     direction -1 -4.49008e-011 1.55564e-027   
     length 1.58015   
     axis -1.61768e-015 -90 -90   XYZ
    dof ry
    limits (-180.0 0.0)
  end
  begin
     id 28
     name rhand
     direction -1 -4.48922e-011 3.11128e-027   
     length 0.717028   
     axis -1.98526e-015 -90 -90   XYZ
    dof rx rz
    limits (-90.0 90.0)
           (-45.0 45.0)
  end
  begin
     id 29
     name rfingers
     direction -1 -4.49002e-011 6.22255e-027   
     length 0.578086   
     axis -3.97052e-015 -90 -90   XYZ
    dof rx
    limits (0.0 90.0)
  end
  begin
     id 30
     name rthumb
     direction -0.707107 -6.34899e-011 0.707107   
     length 0.83002   
     axis -90 -45 -2.85299e-015   XYZ
    dof rx rz
    limits (-45.0 45.0)
           (-45.0 45.0)
  end
:hierarchy
  begin
    root lhipjoint rhipjoint lowerback
    lhipjoint lfemur
    lfemur ltibia
    ltibia lfoot
    lfoot ltoes
    rhipjoint rfemur
    rfemur rtibia
    rtibia rfoot
    rfoot rtoes
    lowerback upperback
    upperback thorax
    thorax lowerneck lclavicle rclavicle
    lowerneck upperneck
    upperneck head
    lclavicle lhumerus
    lhumerus lradius
    lradius lwrist
    lwrist lhand lthumb
    lhand lfingers
    rclavicle rhumerus
    rhumerus rradius
    rradius rwrist
    rwrist rhand rthumb
    rhand rfingers
  end

#!OML:ASF G:\acrobat\cartwheel_test\acrobat_wednesday\Session 1\acrobatwednesday.ASF
:FULLY-SPECIFIED
:DEGREES
182
root -0.489389 11.9949 -4.46064 -439.113 93.6349 -128.776
lowerback 25.9127 -4.04943 6.23189
upperback 14.096 -2.5694 -1.53295
thorax 1.00488 -0.394664 -4.57497
lowerneck -23.006 -2.14215 -3.98957
upperneck 23.3008 -1.70294 1.09044
head 11.4556 -0.939621 0.795772
rclavicle 3.24019e-014 1.48203e-014
rhumerus 4.15949 1.11865 -74.1593
rradius 37.8685
rwrist -3.52154
rhand -27.9793 -358.788
rfingers 7.12502
rthumb -1.36593 -748.763
lclavicle 3.24019e-014 1.48203e-014
lhumerus -174.731 202.665 -99.8308
lradius 39.0386
lwrist 42.6476
lhand -24.5239 -379.304
lfingers 7.12502
lthumb 1.97138 10.6668
rfemur -112.829 -9.1571 23.1755
rtibia 75.7915
rfoot 172.025 -0.299819
rtoes -52.5706
lfemur -109.976 -13.9178 -27.9644
ltibia 73.8171
lfoot 163.802 -14.8072
ltoes -19.5251
183
root -0.860154 11.7661 -4.58287 -476.672 92.28 -161.813
lowerback 27.3364 -3.77607 6.17892
upperback 14.3367 -2.06475 -1.02887
thorax 0.704137 -0.150567 -4.10107
lowerneck -23.5338 -2.30864 -3.52331
upperneck 25.2389 -2.00138 0.9771
head 12.3092 -1.03968 0.62789
rclavicle 5.62064e-014 6.92734e-014
rhumerus 5.96541 2.90179 -72.9337
rradius 37.2113
rwrist -1.38595
rhand -30.7551 -355.412
rfingers 7.12502
rthumb -4.04661 -745.353
lclavicle 5.62064e-014 6.92734e-014
lhumerus -172.414 203.939 -101.224
lradius 36.1739
lwrist 40.5218
lhand -24.8453 -379.956
lfingers 7.12502
lthumb 1.66095 10.0169
rfemur -112.184 -9.06135 25.0145
rtibia 72.416
rfoot 168.443 -0.648262
rtoes -45.5488
lfemur -108.093 -11.2718 -28.4993
ltibia 72.2725
lfoot 163.744 -12.8621
ltoes -15.3864
184
root -1.21118 11.6554 -4.68186 -522.282 93.5669 -203.055
lowerback 29.5076 -2.76712 4.95263
upperback 14.3523 -0.904265 -0.638234
thorax -0.118162 0.33047 -3.27734
lowerneck -24.8976 -2.6823 -2.23555
upperneck 27.2759 -2.64834 0.0567558
head 13.3857 -1.30448 -0.0743946
rclavicle -5.4964e-014 1.11816e-015
rhumerus 6.52235 5.17048 -71.7055
rradius 37.1426
rwrist -0.135282
rhand -27.7743 -354.62
rfingers 7.12502
rthumb -1.16794 -744.597
lclavicle -5.4964e-014 1.11816e-015
lhumerus -172.335 205.545 -102.024
lradius 36.5292
lwrist 38.8037
lhand -22.5202 -381.877
lfingers 7.12502
lthumb 3.90641 8.0668
rfemur -107.803 -8.04859 25.2401
rtibia 74.5719
rfoot 167.998 -1.39395
rtoes -47.5153
lfemur -105.405 -7.42652 -30.3819
ltibia 72.333
lfoot 162.791 -12.1707
ltoes -13.5787
185
root -1.5455 11.6789 -4.79225 -537.132 95.1631 -213.815
lowerback 32.6258 -1.99168 3.83984
upperback 13.7344 -0.0583739 -0.256836
thorax -2.12315 0.623368 -2.49566
lowerneck -24.4959 -2.64128 0.00881601
upperneck 26.7849 -2.82828 -2.0439
head 13.0191 -1.44826 -1.28976
rclavicle -2.33572e-014 -9.19379e-015
rhumerus 4.97484 7.3473 -70.9846
rradius 39.0249
rwrist -0.0327451
rhand -26.3842 -355.68
rfingers 7.12502
rthumb 0.174686 -745.66
lclavicle -2.33572e-014 -9.19379e-015
lhumerus -174.116 206.255 -101.552
lradius 38.2658
lwrist 38.508
lhand -21.7823 -381.11
lfingers 7.12502
lthumb 4.61895 8.8201
rfemur -104.691 -7.32385 26.0049
rtibia 75.3023
rfoot 171.476 -3.48564
rtoes -44.8727
lfemur -102.835 -5.15001 -31.1057
ltibia 73.7075
lfoot 176.711 -18.2676
ltoes -48.2772
186
root -1.87004 11.8356 -4.92401 -543.917 96.2989 -216.768
lowerback 35.5041 -1.62521 3.15237
upperback 13.2657 0.388251 -0.168591
thorax -3.25905 0.80981 -1.98966
lowerneck -26.0729 -2.89321 -3.09461
upperneck 28.4522 -3.0979 1.66504
head 14.1843 -1.3462 0.610737
rclavicle 3.77691e-015 -1.21259e-014
rhumerus 3.67647 7.42701 -71.1408
rradius 40.5972
rwrist -1.85776
rhand -26.3986 -353.917
rfingers 7.12502
rthumb 0.160728 -743.897
lclavicle 3.77691e-015 -1.21259e-014
lhumerus -175.654 204.452 -100.34
lradius 40.0175
lwrist 38.1701
lhand -23.3202 -380.369
lfingers 7.12502
lthumb 3.13391 9.58796
rfemur -99.6292 -6.37508 25.6688
rtibia 79.4202
rfoot 176.667 -4.95143
rtoes -32.5129
lfemur -99.1574 -3.62813 -31.2845
ltibia 76.7403
lfoot 188.626 -10.4407
ltoes -49.7264
187
root -2.19683 12.0991 -5.06107 -546.853 96.8919 -216.795
lowerback 37.2542 -1.24734 2.04768
upperback 13.2037 0.640178 0.2582
thorax -3.77792 0.895756 -1.05008
lowerneck -26.5352 -2.57284 -3.19061
upperneck 27.5379 -2.65253 1.74014
head 13.8753 -1.16706 0.735089
rclavicle -2.18663e-014 2.16178e-014
rhumerus 3.14753 5.59153 -71.4555
rradius 41.3821
rwrist -2.84411
rhand -25.8418 -356.42
rfingers 7.12502
rthumb 0.698523 -746.399
lclavicle -2.18663e-014 2.16178e-014
lhumerus -175.984 201.743 -99.0197
lradius 40.3385
lwrist 38.1517
lhand -24.063 -380.89
lfingers 7.12502
lthumb 2.41647 9.07622
rfemur -94.6802 -5.53759 24.5334
rtibia 86.1077
rfoot 204.825 26.1354
rtoes 0.403863
lfemur -95.4749 -2.79029 -31.1246
ltibia 82.3745
lfoot 160.857 -23.037
ltoes -23.6689
188
root -2.54918 12.4277 -5.28055 -545.434 98.1985 -214.335
lowerback 37.0402 -0.862936 1.35875
upperback 13.3372 0.867601 0.396424
thorax -3.56475 0.975299 -0.620964
lowerneck -27.8489 -2.22997 -3.06761
upperneck 26.955 -2.05542 1.25324
head 13.8657 -0.976064 0.622895
rclavicle 1.98785e-014 3.60794e-014
rhumerus 3.45331 3.02051 -71.7207
rradius 40.2057
rwrist -3.57112
rhand -27.7699 -355.037
rfingers 7.12502
rthumb -1.16371 -745.013
lclavicle 1.98785e-014 3.60794e-014
lhumerus -175.033 198.738 -98.083
lradius 39.4301
lwrist 37.8709
lhand -24.2124 -381.056
lfingers 7.12502
lthumb 2.27227 8.91197
rfemur -91.7438 -4.52911 23.0889
rtibia 88.9761
rfoot 250.852 51.721
rtoes 0.145126
lfemur -93.327 -1.86692 -31.3145
ltibia 88.429
lfoot 123.398 -41.4351
ltoes -20.6553
189
root -2.94456 12.8605 -5.49605 -544.23 98.8243 -212.774
lowerback 36.6758 -0.508107 0.933505
upperback 12.9565 1.08951 0.489196
thorax -3.86393 1.03784 -0.380655
lowerneck -27.3 -2.14588 -2.62715
upperneck 26.2003 -2.04755 0.917093
head 13.4273 -0.980585 0.418811
rclavicle 1.19271e-015 -1.63003e-014
rhumerus 2.50286 -0.330677 -72.1537
rradius 38.6109
rwrist -2.10013
rhand -29.296 -354.203
rfingers 7.12502
rthumb -2.63753 -744.166
lclavicle 1.19271e-015 -1.63003e-014
lhumerus -174.284 197.489 -97.7197
lradius 37.9785
lwrist 37.3752
lhand -24.3693 -381.227
lfingers 7.12502
lthumb 2.12068 8.74236
rfemur -88.9769 -3.92986 21.5172
rtibia 83.907
rfoot 313.878 41.0284
rtoes 1.81351
lfemur -91.1685 -0.801914 -31.8719
ltibia 89.168
lfoot 74.3801 -38.1672
ltoes -27.5696
190
root -3.36494 13.3626 -5.73941 -542.996 98.7528 -212.062
lowerback 35.646 -0.61495 0.779723
upperback 12.7548 0.848136 0.72743
thorax -3.88059 0.886284 0.0303939
lowerneck -27.4907 -2.14371 -2.69384
upperneck 25.8533 -1.98744 0.807901
head 13.3191 -0.980248 0.396168
rclavicle -3.29983e-014 -2.43511e-014
rhumerus 1.67887 -2.21323 -71.8589
rradius 37.2851
rwrist -0.320282
rhand -28.8831 -354.552
rfingers 7.12502
rthumb -2.23883 -744.52
lclavicle -3.29983e-014 -2.43511e-014
lhumerus -172.779 196.376 -97.683
lradius 36.0642
lwrist 36.3387
lhand -24.9764 -381.608
lfingers 7.12502
lthumb 1.53432 8.36654
rfemur -85.8976 -4.61835 20.1078
rtibia 73.0283
rfoot 345.761 7.32321
rtoes 5.77821
lfemur -89.1101 -0.146784 -32.8295
ltibia 82.6524
lfoot 35.5147 -23.8058
ltoes -29.5467
191
root -3.77564 13.896 -5.99864 -540.45 98.6983 -210.674
lowerback 34.1213 -0.709808 0.604116
upperback 12.3253 0.577292 0.978742
thorax -3.81877 0.708495 0.482139
lowerneck -27.5622 -2.21459 -2.95926
upperneck 25.6669 -1.95999 0.757808
head 13.2587 -1.00395 0.424809
rclavicle -3.97569e-015 -5.26779e-015
rhumerus -0.10085 -2.19613 -70.8828
rradius 36.7615
rwrist 0.518575
rhand -26.9705 -356.677
rfingers 7.12502
rthumb -0.391564 -746.656
lclavicle -3.97569e-015 -5.26779e-015
lhumerus -171.333 195.446 -97.7272
lradius 33.9271
lwrist 34.6929
lhand -25.849 -382.039
lfingers 7.12502
lthumb 0.691557 7.93935
rfemur -82.1796 -5.31157 18.3413
rtibia 61.4768
rfoot 343.21 -0.0567631
rtoes 13.7599
lfemur -86.8203 1.02564 -34.1588
ltibia 72.706
lfoot 2.95868 -2.98307
ltoes -24.9947
